<?xml version="1.0" encoding="utf-8"?>
<!-- Generator: Adobe Illustrator 25.4.0, SVG Export Plug-In . SVG Version: 6.00 Build 0)  -->
<svg version="1.1" id="Layer_1" xmlns="http://www.w3.org/2000/svg" xmlns:xlink="http://www.w3.org/1999/xlink" x="0px" y="0px"
	 viewBox="0 0 70 60" style="enable-background:new 0 0 70 60;" xml:space="preserve">
<style type="text/css">
	.st0{fill:#ED1C24;}
</style>
<g>
	<path class="st0" d="M9.81,15.5l0.52-0.52c1.53-1.53,4.02-1.53,5.53,0.02c6.36,6.48,12.73,12.97,19.14,19.49
		c6.38-6.5,12.75-12.98,19.1-19.45c1.52-1.55,4-1.55,5.53-0.01l0.57,0.58c1.51,1.52,1.51,3.97,0,5.48
		c-8.28,8.3-16.6,16.65-24.91,24.98c-0.13,0.13-0.35,0.13-0.48,0c-8.34-8.37-16.68-16.73-25-25.08C8.29,19.47,8.3,17.02,9.81,15.5z"
		/>
</g>
</svg>
