<?xml version="1.0" encoding="utf-8"?>
<!-- Generator: Adobe Illustrator 25.4.0, SVG Export Plug-In . SVG Version: 6.00 Build 0)  -->
<svg version="1.1" id="Layer_1" xmlns="http://www.w3.org/2000/svg" xmlns:xlink="http://www.w3.org/1999/xlink" x="0px" y="0px"
	 viewBox="0 0 38.4 38.4" style="enable-background:new 0 0 38.4 38.4;" xml:space="preserve">
<g>
	<path d="M36.3,31c-0.2,0.4-0.3,0.9-0.6,1.3c-0.6,0.7-1.4,1.2-2.4,1.2c-1.7,0-3.3,0-5,0c-5.5,0-8.9,0-14.3,0c-0.1,0-0.2,0-0.4,0
		c-0.2,0-0.3-0.1-0.2-0.3c0.7-1.3,0.7-2.8,0.7-4.2c0-3.2,0-6.3,0-9.5c0-1.3-0.1-2.7-0.7-3.9c-0.1-0.2,0-0.3,0.2-0.3c0,0,0,0,0,0
		c0.8,0,0.8,0,0.8-0.8c0-1.7,0-3.4,0-5.1c0-1.4,0.5-2.6,1.7-3.5c0.7-0.5,1.5-0.8,2.3-0.8c3.7,0,5.3,0,9,0c2,0,3.7,1.5,4,3.5
		c0,0.3,0.1,0.7,0.1,1c0,1.7,0,3.4,0,5.2c0,0.5,0,0.5,0.5,0.5c0.6,0,1.3-0.1,1.9,0.1c1.2,0.2,1.9,0.9,2.3,2c0,0.1,0.1,0.2,0.1,0.3
		C36.3,22.1,36.3,26.6,36.3,31z M24,7c-1.8,0-3.7,0-5.5,0c-1.2,0-2.2,0.9-2.2,2.1c0,2.4,0,4.8,0,7.1c0,1.2,1,2.1,2.2,2.1
		c3.7,0,5.2,0,8.9,0c1.2,0,2.1-0.8,2.2-2c0.1-2,0-4.1,0.1-6.1c0-0.4,0-0.7,0-1.1c-0.1-1.3-1-2-2.3-2.1C25.5,7,25.8,7,24,7z
		 M23.5,21.8c-2.7,0-3.2,0-5.8,0c-0.3,0-0.4,0.1-0.4,0.4c0,1.4,0,2.7,0,4.1c0,0.3,0.1,0.4,0.4,0.4c5.3,0,8.5,0,13.7,0
		c0.3,0,0.4-0.1,0.4-0.4c0-1.3,0-2.7,0-4c0-0.4-0.1-0.5-0.5-0.5C28.7,21.8,26.1,21.8,23.5,21.8z M29,30c0,0.7,0.5,1.3,1.2,1.3
		c0.7,0,1.3-0.6,1.3-1.3c0-0.7-0.6-1.2-1.3-1.2C29.5,28.7,29,29.3,29,30z"/>
	<path d="M13,24.4c0,1.9,0,3.8,0,5.7c0,1.3-0.3,2.5-1.2,3.6c-1.4,1.7-3.7,1.6-4.9-0.3c-0.7-1-1-2.1-1-3.3c0-3.8,0-7.6,0-11.5
		c0-1.4,0.4-2.7,1.3-3.7c1.4-1.5,3.5-1.3,4.7,0.4c0.7,1,1,2.1,1,3.3C13.1,20.5,13,22.5,13,24.4z"/>
	<path d="M2.1,24.3c0-2,0-4,0-5.9c0-1.8,1.4-3.1,3.2-3.1c0.3,0,0.4,0.1,0.2,0.4c-0.5,1-0.6,2.1-0.6,3.3c0,3.6,0,7.2,0,10.8
		c0,1.2,0.1,2.3,0.7,3.4c0.1,0.2,0,0.3-0.2,0.3c-1.9,0.1-3.3-1.3-3.3-3.1C2.1,28.3,2.1,26.3,2.1,24.3z"/>
	<path d="M23.9,16.5c-1.8,0-3.6,0-5.4,0c-0.1,0-0.3,0-0.4,0c-0.4-0.1-0.6-0.4-0.6-0.8c0-0.4,0.3-0.6,0.6-0.7c0.1,0,0.3,0,0.4,0
		c3.6,0,5.1,0,8.6,0c0.1,0,0.2,0,0.4,0c0.4,0,0.7,0.3,0.7,0.7c0,0.4-0.2,0.7-0.6,0.7c-0.1,0-0.3,0-0.4,0
		C25.4,16.5,25.7,16.5,23.9,16.5z"/>
	<path d="M23.9,8.6c1.8,0,1.5,0,3.2,0c0.1,0,0.3,0,0.4,0c0.4,0,0.6,0.3,0.7,0.7c0,0.4-0.2,0.7-0.6,0.8c-0.1,0-0.2,0-0.4,0
		c-3.6,0-5.2,0-8.8,0c-0.4,0-0.7-0.1-0.9-0.4c-0.2-0.5,0.1-1,0.6-1c0.4,0,0.9,0,1.3,0C21,8.6,22.5,8.6,23.9,8.6z"/>
	<path d="M23.9,11.8c1.8,0,1.5,0,3.2,0c0.1,0,0.3,0,0.4,0c0.4,0,0.6,0.3,0.7,0.7c0,0.4-0.2,0.7-0.6,0.8c-0.1,0-0.2,0-0.4,0
		c-3.6,0-5.2,0-8.8,0c-0.4,0-0.7-0.1-0.9-0.4c-0.2-0.5,0.1-1,0.6-1c0.5,0,0.9,0,1.4,0C21.1,11.8,22.5,11.8,23.9,11.8z"/>
</g>
</svg>
