<?xml version="1.0" encoding="utf-8"?>
<!-- Generator: Adobe Illustrator 16.0.0, SVG Export Plug-In . SVG Version: 6.00 Build 0)  -->
<!DOCTYPE svg PUBLIC "-//W3C//DTD SVG 1.1//EN" "http://www.w3.org/Graphics/SVG/1.1/DTD/svg11.dtd">
<svg version="1.1" id="Layer_1" xmlns="http://www.w3.org/2000/svg" xmlns:xlink="http://www.w3.org/1999/xlink" x="0px" y="0px"
	 width="837px" height="276px" viewBox="0 0 837 276" enable-background="new 0 0 837 276" xml:space="preserve">
<g>
	<path fill="#ED1C24" d="M731.896,57.612c-32.183,0-58.37,26.171-58.375,58.344c-0.002-32.173-26.176-58.344-58.344-58.344
		c-32.137,0-58.284,26.09-58.368,58.19l0.118-92.172c0-4.155-3.382-7.535-7.538-7.535H538.03c-4.155,0-7.536,3.38-7.536,7.533
		l-0.08,43.547l-1.504-0.929c-16.906-10.447-37.896-11.461-56.144-2.715c-16.278,7.805-27.93,23.116-31.49,40.831c0,0,0,0,0-0.003
		c-2.313-11.535-8.072-22.084-16.785-30.466c-11.551-11.112-26.743-16.883-42.731-16.271c-14.415,0.56-27.608,6.594-37.572,16.023
		c-11.498-11.76-27.49-17.602-44.37-16.086c-9.313,0.836-18.522,4.699-26.7,11.189v-3.059c0-3.604-2.933-6.538-6.535-6.538h-12.747
		c-3.681,0-6.676,2.997-6.676,6.681l0.009,48.984c-0.614-31.646-26.513-57.207-58.285-57.207c-32.187,0-58.372,26.167-58.381,58.335
		c-0.011-32.168-26.171-58.335-58.325-58.335c-32.193,0-58.383,26.176-58.383,58.354c0,32.176,26.19,58.349,58.383,58.349
		c32.154,0,58.314-26.164,58.325-58.334c0.009,32.17,26.194,58.334,58.381,58.334c31.776,0,57.681-25.57,58.285-57.225l0.008,50.379
		c0,3.602,2.932,6.534,6.534,6.534h12.746c3.682,0,6.678-2.993,6.678-6.67l0.543-52.846c0-16.566,11.55-29.325,28.085-31.032
		c10.442-1.095,20.775,2.983,27.618,10.925l0.402,0.467l0.006-0.006c-2.565,6.437-4.019,13.393-4.079,20.62
		c-0.249,30.025,22.026,55.155,51.831,58.459l3.205,0.25c1.742,0.116,3.48,0.172,5.305,0.172c0.692,0,1.334-0.019,2.023-0.056
		c15.074-0.395,27.752-4.675,37.635-12.687l0.165-0.099c0.14-0.077,0.296-0.166,0.451-0.305l4.115-3.705
		c1.143-1.028,1.695-2.502,1.517-4.05c-0.18-1.591-1.14-3.008-2.563-3.792l-15.52-8.563c-2.02-1.115-3.981-0.979-5.98,0.41
		l-2.775,1.773c-5.017,2.971-10.952,4.63-17.16,4.797l-1.43,0.034c-2.905,0-5.789-0.263-8.564-0.775
		c-9.502-1.823-17.586-7.842-22.151-16.462l-1.429-3.462l86.85,0.044c2.035,10.254,6.811,19.784,14.094,27.774
		c11.061,12.134,26.793,19.095,43.168,19.095c32.127,0,58.269-26.136,58.309-58.275c0.044,32.142,26.212,58.275,58.374,58.275
		c32.168,0,58.342-26.171,58.344-58.344c0.005,32.173,26.192,58.344,58.375,58.344c32.172,0,58.347-26.173,58.347-58.349
		C790.243,83.788,764.068,57.612,731.896,57.612 M72.177,147.95c-17.642,0-31.997-14.349-31.997-31.984
		c0-17.635,14.354-31.981,31.997-31.981c17.627,0,31.968,14.347,31.968,31.981C104.145,133.602,89.804,147.95,72.177,147.95
		 M188.883,147.95c-17.633,0-31.979-14.349-31.979-31.984c0-17.635,14.347-31.981,31.979-31.981
		c17.617,0,31.947,14.347,31.947,31.981C220.83,133.602,206.5,147.95,188.883,147.95 M354.629,103.557
		c4.969-11.897,16.476-19.563,29.435-19.563c13,0,24.482,7.688,29.376,19.631L354.629,103.557z M498.495,147.952
		c-8.604,0-16.681-3.386-22.737-9.535c-6.066-6.159-9.336-14.307-9.206-22.944c0.251-16.825,14.664-31.242,31.472-31.486
		c0.161-0.001,0.316-0.002,0.473-0.002c8.455,0,16.415,3.265,22.461,9.224c6.149,6.065,9.541,14.145,9.541,22.755
		C530.498,133.602,516.141,147.952,498.495,147.952 M615.177,147.95c-17.63,0-31.969-14.349-31.969-31.984
		c0-17.635,14.339-31.981,31.969-31.981c17.618,0,31.953,14.347,31.953,31.981C647.131,133.602,632.796,147.95,615.177,147.95
		 M731.896,147.95c-17.627,0-31.968-14.349-31.968-31.984c0-17.635,14.341-31.981,31.968-31.981
		c17.62,0,31.952,14.347,31.952,31.981C763.848,133.602,749.516,147.95,731.896,147.95"/>
	<path fill="#ED1C24" d="M802.207,28.144c-11.598,0-20.999,9.4-20.999,20.998c0,11.597,9.401,20.998,20.999,20.998
		c11.599,0,20.999-9.401,20.999-20.998C823.206,37.544,813.805,28.144,802.207,28.144"/>
	<path fill="#58595B" d="M599.429,197.888h-7.74c-0.561,0-1.036,0.196-1.428,0.589c-0.393,0.395-0.589,0.9-0.589,1.515v6.141
		c0,0.562,0.196,1.036,0.589,1.429c0.392,0.394,0.867,0.592,1.428,0.592h7.74c0.562,0,1.054-0.198,1.474-0.592
		c0.421-0.393,0.63-0.867,0.63-1.429v-6.141c0-0.614-0.196-1.12-0.589-1.515C600.552,198.084,600.049,197.888,599.429,197.888"/>
	<path fill="#58595B" d="M533.723,215.301h-7.487c-0.562,0-1.037,0.184-1.431,0.548c-0.392,0.367-0.588,0.856-0.588,1.475v23.137
		c0,3.195-0.854,5.718-2.565,7.57c-1.711,1.851-4.025,2.778-6.942,2.778c-6,0-9.001-3.452-9.001-10.349v-23.137
		c0-0.562-0.198-1.039-0.591-1.434c-0.39-0.391-0.869-0.589-1.428-0.589h-7.572c-0.562,0-1.037,0.184-1.43,0.548
		c-0.395,0.367-0.59,0.856-0.59,1.475v23.641c0,5.891,1.485,10.516,4.459,13.882c2.972,3.365,7.04,5.047,12.199,5.047
		c6.227,0,10.881-2.105,13.967-6.311v3.453c0,0.561,0.194,1.035,0.588,1.427c0.394,0.395,0.868,0.59,1.431,0.59h6.981
		c0.619,0,1.109-0.195,1.472-0.59c0.366-0.392,0.549-0.866,0.549-1.427v-39.712c0-0.618-0.183-1.107-0.549-1.475
		C534.833,215.484,534.343,215.301,533.723,215.301"/>
	<path fill="#58595B" d="M566.282,233.306c-3.253-0.613-5.693-1.22-7.317-1.808c-1.628-0.589-2.706-1.219-3.24-1.893
		c-0.533-0.672-0.8-1.516-0.8-2.525c0-1.458,0.563-2.638,1.684-3.532c1.122-0.896,2.721-1.345,4.796-1.345
		c1.513,0,2.802,0.222,3.871,0.671c1.063,0.449,2.031,1.054,2.901,1.81c0.868,0.758,1.499,1.274,1.894,1.556
		c0.336,0.448,0.813,0.675,1.43,0.675h6.308c0.508,0,0.94-0.182,1.305-0.546c0.364-0.367,0.547-0.803,0.547-1.306
		c0-1.291-0.716-2.778-2.146-4.459c-1.426-1.684-3.516-3.124-6.266-4.332c-2.748-1.204-6.029-1.812-9.843-1.812
		c-3.703,0-6.887,0.634-9.546,1.894c-2.669,1.264-4.673,2.889-6.02,4.877c-1.345,1.994-2.021,4.111-2.021,6.357
		c0,3.422,1.138,6.166,3.409,8.242c2.272,2.076,5.789,3.619,10.559,4.63c3.31,0.729,5.793,1.389,7.445,1.975
		c1.656,0.591,2.805,1.236,3.451,1.938c0.643,0.701,0.969,1.611,0.969,2.73c0,1.63-0.705,2.878-2.104,3.745
		c-1.402,0.868-3.227,1.304-5.47,1.304c-1.513,0-2.904-0.238-4.164-0.715c-1.262-0.474-2.386-1.135-3.364-1.976
		c-0.983-0.842-1.614-1.374-1.893-1.6c-0.34-0.446-0.729-0.671-1.177-0.671h-6.899c-0.506,0-0.941,0.166-1.306,0.505
		c-0.364,0.335-0.546,0.783-0.546,1.345c0,1.233,0.686,2.707,2.062,4.416c1.373,1.712,3.49,3.211,6.35,4.499
		c2.861,1.291,6.424,1.938,10.686,1.938c6.171,0,10.981-1.232,14.429-3.701c3.45-2.468,5.175-5.695,5.175-9.676
		C581.427,239.673,576.378,235.27,566.282,233.306"/>
	<path fill="#58595B" d="M599.178,215.301h-7.151c-0.561,0-1.037,0.184-1.429,0.548c-0.395,0.367-0.594,0.856-0.594,1.475v39.712
		c0,0.561,0.199,1.035,0.594,1.427c0.392,0.395,0.868,0.59,1.429,0.59h7.151c0.559,0,1.038-0.195,1.431-0.59
		c0.393-0.392,0.587-0.866,0.587-1.427v-39.712c0-0.562-0.194-1.039-0.587-1.434C600.217,215.499,599.737,215.301,599.178,215.301"
		/>
	<path fill="#58595B" d="M635.692,214.46c-5.946,0-10.63,2.104-14.049,6.313v-3.45c0-0.618-0.184-1.107-0.549-1.475
		c-0.366-0.364-0.855-0.543-1.47-0.543h-6.985c-0.564,0-1.038,0.179-1.431,0.543c-0.395,0.367-0.589,0.856-0.589,1.475v39.712
		c0,0.561,0.194,1.038,0.589,1.427c0.393,0.395,0.866,0.59,1.431,0.59h7.489c0.615,0,1.104-0.195,1.472-0.59
		c0.364-0.389,0.546-0.866,0.546-1.427v-23.138c0-3.195,0.868-5.723,2.608-7.573c1.738-1.851,4.037-2.776,6.898-2.776
		c2.972,0,5.259,0.91,6.855,2.734c1.599,1.823,2.398,4.361,2.398,7.615v23.138c0,0.561,0.194,1.038,0.59,1.427
		c0.392,0.395,0.867,0.59,1.431,0.59h7.567c0.621,0,1.11-0.195,1.475-0.59c0.366-0.389,0.549-0.866,0.549-1.427v-23.643
		c0-5.893-1.515-10.519-4.544-13.881C644.946,216.146,640.848,214.46,635.692,214.46"/>
	<path fill="#58595B" d="M680.365,214.46c-6.507,0-11.597,2.022-15.27,6.062c-3.677,4.037-5.512,9.56-5.512,16.572l0.085,2.103
		c0.224,6.617,2.171,11.723,5.847,15.313c3.673,3.592,8.652,5.384,14.935,5.384c3.924,0,7.374-0.672,10.347-2.017
		c2.974-1.35,5.261-2.933,6.859-4.756c1.597-1.822,2.396-3.409,2.396-4.753c0-0.506-0.182-0.898-0.546-1.177
		c-0.365-0.28-0.801-0.421-1.307-0.421h-7.403c-0.673,0-1.148,0.068-1.43,0.208c-0.282,0.141-0.675,0.52-1.177,1.141
		c-2.019,2.575-4.625,3.867-7.825,3.867c-2.804,0-5.005-1.022-6.604-3.07s-2.456-4.645-2.565-7.783v-0.672h27.931
		c0.616,0,1.121-0.198,1.516-0.592c0.393-0.39,0.59-0.87,0.59-1.429v-1.769c0-6.73-1.81-12.112-5.429-16.149
		C692.186,216.482,687.039,214.46,680.365,214.46 M689.62,233.306h-18.425v-0.167c0-3.309,0.813-5.961,2.439-7.95
		c1.628-1.99,3.87-2.985,6.73-2.985c2.863,0,5.119,0.995,6.772,2.985c1.655,1.989,2.482,4.642,2.482,7.95V233.306z"/>
	<path fill="#58595B" d="M731.264,233.306c-3.253-0.613-5.692-1.22-7.32-1.808c-1.627-0.589-2.703-1.219-3.236-1.893
		c-0.536-0.672-0.8-1.516-0.8-2.525c0-1.458,0.558-2.638,1.684-3.532c1.12-0.896,2.718-1.345,4.795-1.345
		c1.513,0,2.802,0.222,3.871,0.671c1.063,0.449,2.033,1.054,2.901,1.81c0.868,0.758,1.499,1.274,1.895,1.556
		c0.336,0.448,0.81,0.675,1.43,0.675h6.308c0.505,0,0.938-0.182,1.305-0.546c0.364-0.367,0.547-0.803,0.547-1.306
		c0-1.291-0.717-2.778-2.146-4.459c-1.43-1.684-3.517-3.124-6.268-4.332c-2.747-1.204-6.03-1.812-9.842-1.812
		c-3.706,0-6.887,0.634-9.546,1.894c-2.669,1.264-4.675,2.889-6.019,4.877c-1.348,1.994-2.022,4.111-2.022,6.357
		c0,3.422,1.139,6.166,3.41,8.242s5.789,3.619,10.559,4.63c3.309,0.729,5.792,1.389,7.445,1.975
		c1.653,0.591,2.804,1.236,3.447,1.938c0.646,0.701,0.97,1.611,0.97,2.73c0,1.63-0.703,2.878-2.103,3.745
		c-1.404,0.868-3.226,1.304-5.472,1.304c-1.511,0-2.901-0.238-4.163-0.715c-1.258-0.474-2.384-1.135-3.365-1.976
		c-0.981-0.842-1.611-1.374-1.891-1.6c-0.339-0.446-0.729-0.671-1.177-0.671h-6.902c-0.505,0-0.94,0.166-1.302,0.505
		c-0.367,0.335-0.546,0.783-0.546,1.345c0,1.233,0.684,2.707,2.06,4.416c1.375,1.712,3.491,3.211,6.352,4.499
		c2.86,1.291,6.421,1.938,10.683,1.938c6.173,0,10.981-1.232,14.431-3.701c3.446-2.468,5.175-5.695,5.175-9.676
		C746.41,239.673,741.361,235.27,731.264,233.306"/>
	<path fill="#58595B" d="M776.108,233.306c-3.252-0.613-5.695-1.22-7.32-1.808c-1.628-0.589-2.707-1.219-3.24-1.893
		c-0.532-0.672-0.799-1.516-0.799-2.525c0-1.458,0.561-2.638,1.684-3.532c1.122-0.896,2.72-1.345,4.796-1.345
		c1.514,0,2.803,0.222,3.87,0.671c1.063,0.449,2.031,1.054,2.9,1.81c0.872,0.758,1.502,1.274,1.895,1.556
		c0.339,0.448,0.813,0.675,1.43,0.675h6.311c0.502,0,0.938-0.182,1.305-0.546c0.364-0.367,0.546-0.803,0.546-1.306
		c0-1.291-0.715-2.778-2.146-4.459c-1.43-1.684-3.521-3.124-6.267-4.332c-2.749-1.204-6.03-1.812-9.844-1.812
		c-3.704,0-6.886,0.634-9.551,1.894c-2.663,1.264-4.67,2.889-6.016,4.877c-1.345,1.994-2.02,4.111-2.02,6.357
		c0,3.422,1.136,6.166,3.409,8.242s5.79,3.619,10.56,4.63c3.307,0.729,5.79,1.389,7.446,1.975c1.653,0.591,2.804,1.236,3.447,1.938
		c0.646,0.701,0.969,1.611,0.969,2.73c0,1.63-0.703,2.878-2.104,3.745c-1.403,0.868-3.225,1.304-5.47,1.304
		c-1.512,0-2.901-0.238-4.163-0.715c-1.264-0.474-2.386-1.135-3.366-1.976c-0.981-0.842-1.613-1.374-1.893-1.6
		c-0.335-0.446-0.729-0.671-1.177-0.671h-6.899c-0.505,0-0.94,0.166-1.302,0.505c-0.368,0.335-0.552,0.783-0.552,1.345
		c0,1.233,0.69,2.707,2.064,4.416c1.372,1.712,3.49,3.211,6.354,4.499c2.859,1.291,6.421,1.938,10.683,1.938
		c6.172,0,10.977-1.232,14.429-3.701c3.448-2.468,5.174-5.695,5.174-9.676C791.251,239.673,786.204,235.27,776.108,233.306"/>
	<path fill="#58595B" d="M474.888,216.341c-7.175-3.434-15.426-3.036-22.076,1.069l-0.591,0.365l-0.03-17.118
		c0-1.635-1.329-2.966-2.964-2.966h-4.466c-1.634,0-2.963,1.331-2.963,2.966l0.046,36.301c0,12.652,10.286,22.946,22.93,22.946
		c6.436,0,12.623-2.736,16.971-7.512c4.402-4.825,6.493-11.08,5.885-17.616C486.89,226.821,482.009,219.759,474.888,216.341
		 M473.713,245.787c-2.383,2.415-5.556,3.75-8.938,3.75c-6.939,0-12.583-5.641-12.583-12.579c0-3.386,1.33-6.562,3.75-8.944
		c2.378-2.343,5.507-3.627,8.831-3.627c0.06,0,0.122,0,0.186,0.002c6.609,0.093,12.275,5.765,12.374,12.377
		C477.384,240.162,476.097,243.365,473.713,245.787"/>
</g>
</svg>
