<?xml version="1.0" encoding="utf-8"?>
<!-- Generator: Adobe Illustrator 25.4.0, SVG Export Plug-In . SVG Version: 6.00 Build 0)  -->
<svg version="1.1" id="Layer_1" xmlns="http://www.w3.org/2000/svg" xmlns:xlink="http://www.w3.org/1999/xlink" x="0px" y="0px"
	 viewBox="0 0 38.38 38.38" style="enable-background:new 0 0 38.38 38.38;" xml:space="preserve">
<g>
	<path d="M10.22,17.12c1.62,3.15,3.72,5.77,6.36,7.97c1.34,1.12,2.79,2.07,4.33,2.9c0.22,0.12,0.35,0.1,0.53-0.08
		c1.08-1.1,2.19-2.18,3.27-3.29c0.58-0.6,1.24-0.77,2.02-0.51c1.82,0.59,3.68,0.86,5.59,0.9c1.22,0.03,1.84,0.66,1.84,1.87
		c0,1.82,0,3.64,0,5.45c0,1.13-0.69,1.82-1.82,1.81C19.28,34.1,7.91,25.01,4.96,12.28c-0.48-2.05-0.72-4.14-0.72-6.25
		c0-1.11,0.68-1.8,1.79-1.8c1.86,0,3.71,0,5.57,0c1.06,0,1.75,0.65,1.77,1.7c0.04,1.99,0.32,3.93,0.93,5.82
		c0.23,0.71,0.06,1.32-0.47,1.85c-1.09,1.08-2.17,2.17-3.25,3.25C10.47,16.96,10.35,17.03,10.22,17.12z"/>
</g>
</svg>
